<?xml version="1.0" encoding="UTF-8"?>
<svg version="1.1" xmlns="http://www.w3.org/2000/svg" width="64" height="64">
<path d="M0 0 C0 0.66 0 1.32 0 2 C0.721875 2.20625 1.44375 2.4125 2.1875 2.625 C5.99861399 4.48821128 7.53480172 6.54872241 10 10 C10 10.99 10 11.98 10 13 C10.66 13 11.32 13 12 13 C14.37370295 20.12110884 13.82543603 28.93457915 11.12109375 35.921875 C9.04930293 39.76226774 6.35533611 43.20134466 3 46 C2.01 46 1.02 46 0 46 C0 46.66 0 47.32 0 48 C-4.23528495 50.04854473 -7.7596473 50.26884331 -12.4375 50.25 C-13.71496094 50.25515625 -14.99242188 50.2603125 -16.30859375 50.265625 C-19.88550755 50.00823861 -22.67316405 49.29576918 -26 48 C-26 47.34 -26 46.68 -26 46 C-26.721875 45.79375 -27.44375 45.5875 -28.1875 45.375 C-31.99861399 43.51178872 -33.53480172 41.45127759 -36 38 C-36 37.01 -36 36.02 -36 35 C-36.66 35 -37.32 35 -38 35 C-38.86286752 31.27460372 -39.13474793 27.82118675 -39.125 24 C-39.12757812 22.989375 -39.13015625 21.97875 -39.1328125 20.9375 C-39.00826727 18.18285256 -38.62110865 15.68161197 -38 13 C-37.34 13 -36.68 13 -36 13 C-35.938125 12.46375 -35.87625 11.9275 -35.8125 11.375 C-34.61004527 7.86013232 -32.5457314 5.66413752 -30 3 C-27.6875 2.125 -27.6875 2.125 -26 2 C-26 1.34 -26 0.68 -26 0 C-17.52633357 -3.08133325 -8.47366643 -3.08133325 0 0 Z " fill="#899DB1" transform="translate(39,2)"/>
<path d="M0 0 C0 0.66 0 1.32 0 2 C0.721875 2.20625 1.44375 2.4125 2.1875 2.625 C5.99861399 4.48821128 7.53480172 6.54872241 10 10 C10 10.99 10 11.98 10 13 C10.66 13 11.32 13 12 13 C14.37370295 20.12110884 13.82543603 28.93457915 11.12109375 35.921875 C9.04930293 39.76226774 6.35533611 43.20134466 3 46 C2.01 46 1.02 46 0 46 C0 46.66 0 47.32 0 48 C-4.23528495 50.04854473 -7.7596473 50.26884331 -12.4375 50.25 C-13.71496094 50.25515625 -14.99242188 50.2603125 -16.30859375 50.265625 C-19.88550755 50.00823861 -22.67316405 49.29576918 -26 48 C-26 47.34 -26 46.68 -26 46 C-26.721875 45.79375 -27.44375 45.5875 -28.1875 45.375 C-31.99861399 43.51178872 -33.53480172 41.45127759 -36 38 C-36 37.01 -36 36.02 -36 35 C-36.66 35 -37.32 35 -38 35 C-38.86286752 31.27460372 -39.13474793 27.82118675 -39.125 24 C-39.12757812 22.989375 -39.13015625 21.97875 -39.1328125 20.9375 C-39.00826727 18.18285256 -38.62110865 15.68161197 -38 13 C-37.34 13 -36.68 13 -36 13 C-35.938125 12.46375 -35.87625 11.9275 -35.8125 11.375 C-34.61004527 7.86013232 -32.5457314 5.66413752 -30 3 C-27.6875 2.125 -27.6875 2.125 -26 2 C-26 1.34 -26 0.68 -26 0 C-17.52633357 -3.08133325 -8.47366643 -3.08133325 0 0 Z M-33 13 C-34.85200448 15.77800672 -35.4857952 17.33441445 -36.1875 20.5 C-36.36667969 21.2734375 -36.54585937 22.046875 -36.73046875 22.84375 C-37.1799008 25.17939008 -37.1799008 25.17939008 -36 28 C-35.22914062 28.04898437 -34.45828125 28.09796875 -33.6640625 28.1484375 C-32.66117188 28.22320313 -31.65828125 28.29796875 -30.625 28.375 C-29.12839844 28.47941406 -29.12839844 28.47941406 -27.6015625 28.5859375 C-25 29 -25 29 -23 31 C-22.731875 29.88625 -22.46375 28.7725 -22.1875 27.625 C-21 24 -21 24 -18 22 C-18 20.68 -18 19.36 -18 18 C-18.66 18 -19.32 18 -20 18 C-18 15 -18 15 -15.875 14.3125 C-15.25625 14.209375 -14.6375 14.10625 -14 14 C-14 13.01 -14 12.02 -14 11 C-13.34 11 -12.68 11 -12 11 C-12 11.99 -12 12.98 -12 14 C-11.030625 14.28875 -10.06125 14.5775 -9.0625 14.875 C-6 16 -6 16 -5 18 C-5.99 18 -6.98 18 -8 18 C-7.57640444 20.45685425 -7.34489637 21.6964912 -5.4375 23.375 C-4 25 -4 25 -3.8125 28.1875 C-3.9053125 29.5796875 -3.9053125 29.5796875 -4 31 C-4.99 31.495 -4.99 31.495 -6 32 C-5.34 31.34 -4.68 30.68 -4 30 C-3.92727438 27.44539786 -3.92727438 27.44539786 -5 25 C-7.47636012 23.62533375 -7.47636012 23.62533375 -10 23 C-10 20.36 -10 17.72 -10 15 C-11.98 15 -13.96 15 -16 15 C-15.896875 15.886875 -15.79375 16.77375 -15.6875 17.6875 C-16.09685635 22.0266773 -17.99916866 22.99916866 -21 26 C-20.91985673 29.44616056 -20.4443896 30.5556104 -18 33 C-18.66 33.66 -19.32 34.32 -20 35 C-16.55549263 37.29633824 -14.06187717 37.54016485 -10 38 C-16.83240844 38.71920089 -16.83240844 38.71920089 -20.0546875 36.734375 C-22.48814864 34.65432108 -24.55846298 32.88307404 -26 30 C-28.64 30 -31.28 30 -34 30 C-32.48133714 36.22651774 -29.31519586 40.57407341 -24.1796875 44.33203125 C-18.97855016 47.31163017 -13.89536723 48.04197188 -8 47 C-0.59429875 44.30484946 4.73300247 39.51280817 8.25390625 32.50390625 C10.10979748 28.15193831 11.22090388 24.77492237 11 20 C10.01 19.67 9.02 19.34 8 19 C8.0721875 18.26910156 8.144375 17.53820312 8.21875 16.78515625 C7.80963093 11.57619377 3.68809439 8.39659552 0 5 C-4.83502315 1.3785484 -9.54941263 0.33090537 -15.55078125 0.625 C-23.61295913 1.85940044 -28.22342625 6.71299618 -33 13 Z " fill="#F0F4F2" transform="translate(39,2)"/>
<path d="M0 0 C4.52882707 2.82850232 8.4908341 6.436341 11.3125 11 C11.3125 12.32 11.3125 13.64 11.3125 15 C6.12342849 15.52770219 6.12342849 15.52770219 3.3125 15 C1.20275682 13.21689219 -0.0611563 11.27688118 -1.6875 9 C-6.86278774 7.27490409 -12.42633667 7.16435268 -17.5625 9.0625 C-20.47258894 11.71581638 -21.90135815 14.49386971 -23.6875 18 C-25.9975 18 -28.3075 18 -30.6875 18 C-31.19689993 12.65130078 -30.05458449 10.14410399 -26.6875 6 C-19.10203845 -1.54951149 -10.22159882 -5.18942709 0 0 Z " fill="#3A8238" transform="translate(35.6875,5)"/>
<path d="M0 0 C2.64 0 5.28 0 8 0 C7.69927351 6.01452973 4.96110848 9.71247501 1 14 C-4.53984318 18.75512966 -9.17324174 20.38467564 -16.375 20.26953125 C-23.64488672 19.52306967 -28.00190173 15.42606704 -32.65234375 10.09765625 C-34.17642242 7.72539467 -34.61882257 5.77439271 -35 3 C-29.82909728 2.47414549 -29.82909728 2.47414549 -27 3 C-24.84038403 4.77592785 -23.62997939 6.67145802 -22 9 C-18.27328121 11.4844792 -15.31556709 11.52409164 -11 11 C-6.30005971 9.28271412 -3.79040501 7.13393334 -1 3 C-0.67 2.01 -0.34 1.02 0 0 Z " fill="#1B701B" transform="translate(40,29)"/>
<path d="M0 0 C3.24840289 1.45141406 5.72802442 3.24971377 8 6 C8 6.66 8 7.32 8 8 C9.918125 7.938125 9.918125 7.938125 11.875 7.875 C14.0546875 7.8046875 14.0546875 7.8046875 16 8 C16.66 8.66 17.32 9.32 18 10 C8.21905009 10.92499351 8.21905009 10.92499351 5.33203125 8.734375 C4.17415839 7.19054452 3.08513919 5.59579292 2 4 C-0.6514482 2.60180488 -0.6514482 2.60180488 -3 2 C-3.33 2.66 -3.66 3.32 -4 4 C-4 3.01 -4 2.02 -4 1 C-4.66 1 -5.32 1 -6 1 C-6 1.99 -6 2.98 -6 4 C-6.804375 4.28875 -7.60875 4.5775 -8.4375 4.875 C-11.1326468 5.73262568 -11.1326468 5.73262568 -12 8 C-11.34 8 -10.68 8 -10 8 C-10 9.32 -10 10.64 -10 12 C-10.639375 12.45375 -11.27875 12.9075 -11.9375 13.375 C-14.32845509 14.91176363 -14.32845509 14.91176363 -14.75 18.1875 C-14.8325 19.115625 -14.915 20.04375 -15 21 C-15.66 20.34 -16.32 19.68 -17 19 C-19.66242821 18.53709779 -19.66242821 18.53709779 -22.625 18.375 C-23.62789062 18.30023437 -24.63078125 18.22546875 -25.6640625 18.1484375 C-26.43492188 18.09945313 -27.20578125 18.05046875 -28 18 C-29.13905625 13.388017 -28.50576582 10.51729745 -27 6 C-26.67 6 -26.34 6 -26 6 C-26 7.65 -26 9.3 -26 11 C-23.69 11 -21.38 11 -19 11 C-18.773125 10.278125 -18.54625 9.55625 -18.3125 8.8125 C-14.3398624 0.29970513 -8.55326171 -0.7689841 0 0 Z " fill="#8DA0B5" transform="translate(31,12)"/>
<path d="M0 0 C0 0.66 0 1.32 0 2 C0.721875 2.20625 1.44375 2.4125 2.1875 2.625 C5.99861399 4.48821128 7.53480172 6.54872241 10 10 C10 10.99 10 11.98 10 13 C10.66 13 11.32 13 12 13 C12.495 15.97 12.495 15.97 13 19 C11.35 19 9.7 19 8 19 C7.79375 18.154375 7.5875 17.30875 7.375 16.4375 C4.89570981 10.23927452 0.67922301 5.45635308 -5.44140625 2.640625 C-10.16830246 1.45709679 -14.97172108 1.77927801 -19.8046875 1.95703125 C-23 2 -23 2 -25 1 C-25 1.66 -25 2.32 -25 3 C-26.32 3.33 -27.64 3.66 -29 4 C-29 4.66 -29 5.32 -29 6 C-29.66 6 -30.32 6 -31 6 C-31.33 6.99 -31.66 7.98 -32 9 C-32.66 8.34 -33.32 7.68 -34 7 C-28.25 2 -28.25 2 -26 2 C-26 1.34 -26 0.68 -26 0 C-17.52633357 -3.08133325 -8.47366643 -3.08133325 0 0 Z " fill="#F1F4F3" transform="translate(39,2)"/>
<path d="M0 0 C0.66 0 1.32 0 2 0 C2 0.99 2 1.98 2 3 C4.97 3.495 4.97 3.495 8 4 C8.33 4.99 8.66 5.98 9 7 C8.01 7 7.02 7 6 7 C7.52206009 9.62901288 8.84365964 11.84365964 11 14 C11.56338028 19.29577465 11.56338028 19.29577465 9.5 21.875 C9.005 22.24625 8.51 22.6175 8 23 C7.01 22.67 6.02 22.34 5 22 C6.32 21.01 7.64 20.02 9 19 C8.81171228 16.55519921 8.81171228 16.55519921 8 14 C6.03241727 12.63979849 6.03241727 12.63979849 4 12 C4 9.36 4 6.72 4 4 C2.02 4 0.04 4 -2 4 C-1.731875 5.0725 -1.46375 6.145 -1.1875 7.25 C-1.125625 8.4875 -1.06375 9.725 -1 11 C-3.4375 13.4375 -3.4375 13.4375 -6 15 C-5.50168276 18.68754757 -4.89932357 20.60490662 -2 23 C-2.99 23.33 -3.98 23.66 -5 24 C-2.70370006 25.14814997 -0.92301914 25.30769809 1.625 25.5625 C2.44226563 25.64628906 3.25953125 25.73007812 4.1015625 25.81640625 C5.04128906 25.90728516 5.04128906 25.90728516 6 26 C4 28 4 28 0.375 28.5625 C-4.52266197 28.48176931 -7.07885149 25.95322726 -10.53125 22.7265625 C-12 21 -12 21 -12 19 C-14.64 19 -17.28 19 -20 19 C-20 18.67 -20 18.34 -20 18 C-18.52168779 17.80587819 -17.04230684 17.61987869 -15.5625 17.4375 C-14.73878906 17.33308594 -13.91507813 17.22867187 -13.06640625 17.12109375 C-12.38449219 17.08113281 -11.70257813 17.04117187 -11 17 C-10.67 17.33 -10.34 17.66 -10 18 C-9.62875 16.824375 -9.62875 16.824375 -9.25 15.625 C-7.84610901 12.67682892 -6.99324263 12.0975223 -4 11 C-4 9.68 -4 8.36 -4 7 C-4.66 7 -5.32 7 -6 7 C-5.34 5.68 -4.68 4.36 -4 3 C-2.68 3 -1.36 3 0 3 C0 2.01 0 1.02 0 0 Z " fill="#C5CCE0" transform="translate(25,13)"/>
<path d="M0 0 C2.64 0 5.28 0 8 0 C7.71015434 5.79691323 5.07476897 10.0015733 1 14 C-1.19921875 14.73046875 -1.19921875 14.73046875 -3 15 C-3 13.68 -3 12.36 -3 11 C-3.86625 11.495 -3.86625 11.495 -4.75 12 C-7 13 -7 13 -11 13 C-11 14.32 -11 15.64 -11 17 C-9.68 17.33 -8.36 17.66 -7 18 C-8.79008467 18.22151549 -10.58218162 18.42682213 -12.375 18.625 C-13.37273438 18.74101563 -14.37046875 18.85703125 -15.3984375 18.9765625 C-16.25695312 18.98429687 -17.11546875 18.99203125 -18 19 C-18.66 18.34 -19.32 17.68 -20 17 C-17.69 17 -15.38 17 -13 17 C-13 16.01 -13 15.02 -13 14 C-14.98 14 -16.96 14 -19 14 C-19 13.34 -19 12.68 -19 12 C-18.33613281 11.89042969 -17.67226563 11.78085937 -16.98828125 11.66796875 C-11.05181872 10.6020054 -6.3718563 9.71069291 -2.25 5 C-0.84496965 2.9259765 -0.84496965 2.9259765 0 0 Z " fill="#1F721E" transform="translate(40,29)"/>
<path d="M0 0 C5.54409877 2.83386181 10.2929182 6.83173597 13.58984375 12.1640625 C13.58984375 13.4840625 13.58984375 14.8040625 13.58984375 16.1640625 C8.39295256 16.78064281 8.39295256 16.78064281 5.58984375 16.1640625 C3.41388229 14.10180924 1.98941554 11.80171704 0.58984375 9.1640625 C2.51171875 9.50390625 2.51171875 9.50390625 4.58984375 10.1640625 C5.83984375 12.7265625 5.83984375 12.7265625 6.58984375 15.1640625 C7.24984375 14.8340625 7.90984375 14.5040625 8.58984375 14.1640625 C8.48370539 11.71181556 8.48370539 11.71181556 7.58984375 9.1640625 C5.11348363 7.78939625 5.11348363 7.78939625 2.58984375 7.1640625 C2.58984375 6.5040625 2.58984375 5.8440625 2.58984375 5.1640625 C-1.50019484 4.01423648 -5.44192676 4.05311994 -9.66015625 4.1015625 C-10.77777344 4.10833008 -10.77777344 4.10833008 -11.91796875 4.11523438 C-13.74873265 4.12697004 -15.57945498 4.144904 -17.41015625 4.1640625 C-16.59765625 2.2265625 -16.59765625 2.2265625 -15.41015625 0.1640625 C-10.3129789 -1.53499662 -5.12441662 -1.77735033 0 0 Z " fill="#40873F" transform="translate(33.41015625,3.8359375)"/>
<path d="M0 0 C1.98 0 3.96 0 6 0 C5.9175 1.2375 5.835 2.475 5.75 3.75 C5.71144754 7.38347733 5.71144754 7.38347733 8.0625 10.25 C8.701875 10.8275 9.34125 11.405 10 12 C9.62109375 14.109375 9.62109375 14.109375 9 16 C0.80743982 17.45295405 0.80743982 17.45295405 -2.5625 15.5625 C-3.036875 15.046875 -3.51125 14.53125 -4 14 C-2.25 8.25 -2.25 8.25 0 6 C0.16681109 2.91652174 0.16681109 2.91652174 0 0 Z " fill="#95A2C8" transform="translate(23,17)"/>
<path d="M0 0 C0.99 0 1.98 0 3 0 C3.51338247 9.10778537 2.47926768 16.20087715 -3.1875 23.5625 C-5.2007311 25.73489681 -6.32828779 26.8508611 -9.234375 27.49609375 C-11.4375 27.5 -11.4375 27.5 -15 27 C-13.12332654 25.0190669 -11.24292561 23.42011323 -9.0625 21.75 C-4.13955704 17.68215879 -1.56874208 12.1442398 0 6 C0.16798469 2.74955291 0.16798469 2.74955291 0 0 Z " fill="#E6EDE8" transform="translate(49,21)"/>
<path d="M0 0 C7.38461538 -0.36923077 7.38461538 -0.36923077 10.5 1.5 C11.2425 2.2425 11.2425 2.2425 12 3 C11.25 7.75 11.25 7.75 9 10 C9 10.99 9 11.98 9 13 C7.42077594 14.57922406 5.80556126 14.207659 3.625 14.25 C2.83351563 14.27578125 2.04203125 14.3015625 1.2265625 14.328125 C-1.47024878 13.93070018 -2.30729015 13.07493465 -4 11 C-3.34 10.67 -2.68 10.34 -2 10 C-2.515625 9.608125 -3.03125 9.21625 -3.5625 8.8125 C-4.036875 8.214375 -4.51125 7.61625 -5 7 C-4.6875 4.3125 -4.6875 4.3125 -4 2 C-3.01 2 -2.02 2 -1 2 C-1.66 3.32 -2.32 4.64 -3 6 C0.35327639 8.23551759 0.90743657 8.17283528 4.6875 7.625 C5.49574219 7.51414062 6.30398437 7.40328125 7.13671875 7.2890625 C7.75160156 7.19367187 8.36648437 7.09828125 9 7 C8.50243908 4.24358584 8.50243908 4.24358584 7 2 C4.67182036 1.63239269 2.3381615 1.29758419 0 1 C0 0.67 0 0.34 0 0 Z " fill="#2A3F91" transform="translate(23,25)"/>
<path d="M0 0 C0 0.66 0 1.32 0 2 C-0.639375 2.28875 -1.27875 2.5775 -1.9375 2.875 C-4.15206079 3.82823451 -4.15206079 3.82823451 -5 6 C-4.34 6 -3.68 6 -3 6 C-3 7.32 -3 8.64 -3 10 C-3.639375 10.45375 -4.27875 10.9075 -4.9375 11.375 C-7.32845509 12.91176363 -7.32845509 12.91176363 -7.75 16.1875 C-7.8325 17.115625 -7.915 18.04375 -8 19 C-8.39832031 18.51917969 -8.79664063 18.03835937 -9.20703125 17.54296875 C-11.43450247 15.62608175 -12.78834669 15.52258357 -15.6875 15.3125 C-16.89986328 15.21388672 -16.89986328 15.21388672 -18.13671875 15.11328125 C-18.75160156 15.07589844 -19.36648437 15.03851563 -20 15 C-20 14.67 -20 14.34 -20 14 C-17.03 14 -14.06 14 -11 14 C-11.12375 13.154375 -11.2475 12.30875 -11.375 11.4375 C-10.85410732 6.66265043 -8.42773923 4.2234957 -5 1 C-3 0 -3 0 0 0 Z " fill="#223B8D" transform="translate(24,14)"/>
<path d="M0 0 C1.546875 -0.00773438 1.546875 -0.00773438 3.125 -0.015625 C5.94597278 0.24500835 7.60145718 0.79703656 10 2.25 C10 2.91 10 3.57 10 4.25 C10.78375 4.476875 11.5675 4.70375 12.375 4.9375 C15 6.25 15 6.25 16.3125 8.875 C16.6528125 10.050625 16.6528125 10.050625 17 11.25 C16.01 11.58 15.02 11.91 14 12.25 C13.34 10.6 12.68 8.95 12 7.25 C11.34 7.25 10.68 7.25 10 7.25 C10 6.59 10 5.93 10 5.25 C6.4201548 4.43137841 3.10762899 4.11479102 -0.5625 4.125 C-1.49191406 4.12242188 -2.42132813 4.11984375 -3.37890625 4.1171875 C-5.74147476 4.23690036 -7.74030763 4.58006767 -10 5.25 C-10 4.26 -10 3.27 -10 2.25 C-6.6042877 0.19298197 -3.9382341 -0.01969117 0 0 Z " fill="#76A176" transform="translate(26,6.75)"/>
<path d="M0 0 C0.99 0 1.98 0 3 0 C3.33 0.99 3.66 1.98 4 3 C3.01 3.33 2.02 3.66 1 4 C0.67 4.99 0.34 5.98 0 7 C-0.66 7 -1.32 7 -2 7 C-2 8.32 -2 9.64 -2 11 C-1.01 11 -0.02 11 1 11 C1.061875 10.21625 1.12375 9.4325 1.1875 8.625 C1.455625 7.75875 1.72375 6.8925 2 6 C4.55078125 4.8359375 4.55078125 4.8359375 7 4 C5.26536376 7.55822819 3.49515761 10.91488105 1 14 C-2.875 14.625 -2.875 14.625 -6 14 C-6.50547389 8.6925242 -5.22743563 6.17668141 -2 2 C-1.34 1.34 -0.68 0.68 0 0 Z " fill="#1D701C" transform="translate(11,9)"/>
<path d="M0 0 C2.1875 0.125 2.1875 0.125 5 1 C6.051875 2.485 6.051875 2.485 7.125 4 C8.91988848 6.42803684 9.7507093 6.94428864 12.76171875 7.6171875 C15.51697703 7.85002623 18.23543103 7.99031675 21 8 C21 8.33 21 8.66 21 9 C16.545 9.495 16.545 9.495 12 10 C11.67 11.98 11.34 13.96 11 16 C9 16 9 16 7.4921875 14.57421875 C6.95851563 13.95160156 6.42484375 13.32898437 5.875 12.6875 C5.33617187 12.07261719 4.79734375 11.45773438 4.2421875 10.82421875 C3 9 3 9 3 6 C3.99 6 4.98 6 6 6 C3.94766315 3.7522025 2.99332739 2.9977758 0 2 C0 1.34 0 0.68 0 0 Z " fill="#1F368C" transform="translate(28,14)"/>
<path d="M0 0 C4.62338179 2.3116909 8.25712366 5.61705327 11 10 C11 11.32 11 12.64 11 14 C5.80310881 14.61658031 5.80310881 14.61658031 3 14 C0.82403854 11.93774674 -0.60042821 9.63765454 -2 7 C-0.078125 7.33984375 -0.078125 7.33984375 2 8 C3.25 10.5625 3.25 10.5625 4 13 C4.66 12.67 5.32 12.34 6 12 C5.89386164 9.54775306 5.89386164 9.54775306 5 7 C2.52363988 5.62533375 2.52363988 5.62533375 0 5 C0 3.35 0 1.7 0 0 Z " fill="#257624" transform="translate(36,6)"/>
<path d="M0 0 C0.99 0.33 1.98 0.66 3 1 C3.33 2.65 3.66 4.3 4 6 C-2.03455395 9.57603197 -6.94993243 11.07691974 -14 10 C-14.99 9.34 -15.98 8.68 -17 8 C-13.7 8 -10.4 8 -7 8 C-6.9071875 6.824375 -6.9071875 6.824375 -6.8125 5.625 C-6.544375 4.75875 -6.27625 3.8925 -6 3 C-3.5 1.75 -3.5 1.75 -1 1 C-0.67 0.67 -0.34 0.34 0 0 Z " fill="#448943" transform="translate(35,39)"/>
<path d="M0 0 C-0.33 0.66 -0.66 1.32 -1 2 C-3.03125 2.37890625 -3.03125 2.37890625 -5.5 2.5625 C-8.54981525 2.5792263 -8.54981525 2.5792263 -11 4 C-13.33944736 3.71269945 -15.6739143 3.38063221 -18 3 C-18 3.66 -18 4.32 -18 5 C-19.32 5.33 -20.64 5.66 -22 6 C-22 6.66 -22 7.32 -22 8 C-22.66 8 -23.32 8 -24 8 C-24.33 8.99 -24.66 9.98 -25 11 C-25.66 10.34 -26.32 9.68 -27 9 C-21.25 4 -21.25 4 -19 4 C-19 3.34 -19 2.68 -19 2 C-12.65176798 -0.30844801 -6.70518586 -0.19818283 0 0 Z " fill="#F9F9FC" transform="translate(32,0)"/>
<path d="M0 0 C1 3 1 3 0 6 C0 6.99 0 7.98 0 9 C3.3 9 6.6 9 10 9 C10 9.33 10 9.66 10 10 C7.36 10 4.72 10 2 10 C2.33 11.98 2.66 13.96 3 16 C2.34 16.33 1.68 16.66 1 17 C1 16.01 1 15.02 1 14 C0.34 14 -0.32 14 -1 14 C-1 13.01 -1 12.02 -1 11 C-1.66 11 -2.32 11 -3 11 C-3.36923077 3.49230769 -3.36923077 3.49230769 -1.5 1 C-1.005 0.67 -0.51 0.34 0 0 Z " fill="#D7DFE2" transform="translate(3,21)"/>
<path d="M0 0 C0 0.66 0 1.32 0 2 C0.8971875 2.4021875 0.8971875 2.4021875 1.8125 2.8125 C4 4 4 4 5.34375 5.53125 C7.47371411 7.4200861 8.87906664 7.48399034 11.6875 7.6875 C12.49574219 7.75324219 13.30398437 7.81898437 14.13671875 7.88671875 C14.75160156 7.92410156 15.36648437 7.96148437 16 8 C14 10 14 10 10.375 10.5625 C5.47733803 10.48176931 2.92114851 7.95322726 -0.53125 4.7265625 C-2 3 -2 3 -2 1 C-4.64 1 -7.28 1 -10 1 C-10 0.67 -10 0.34 -10 0 C-2.25 -1.125 -2.25 -1.125 0 0 Z " fill="#83A29D" transform="translate(15,31)"/>
<path d="M0 0 C1.98 0 3.96 0 6 0 C6 2.64 6 5.28 6 8 C4.02 8 2.04 8 0 8 C-0.33 8.66 -0.66 9.32 -1 10 C-1 7 -1 7 0 6 C0.04080783 4.00041636 0.04254356 1.99954746 0 0 Z " fill="#8996C0" transform="translate(23,17)"/>
<path d="M0 0 C0 0.99 0 1.98 0 3 C-4.27884606 5.1103435 -8.13864142 5.24128739 -12.8125 5.125 C-13.85180664 5.11146484 -13.85180664 5.11146484 -14.91210938 5.09765625 C-16.60822395 5.07426157 -18.30415871 5.03839641 -20 5 C-20 4.34 -20 3.68 -20 3 C-15.71 3 -11.42 3 -7 3 C-7 2.34 -7 1.68 -7 1 C-4.50935112 0.31292445 -2.62113708 0 0 0 Z " fill="#F8F8FC" transform="translate(39,47)"/>
<path d="M0 0 C2.79401709 1.43108193 4.54340093 2.9194937 6.5625 5.3125 C6.5625 5.9725 6.5625 6.6325 6.5625 7.3125 C8.480625 7.250625 8.480625 7.250625 10.4375 7.1875 C12.6171875 7.1171875 12.6171875 7.1171875 14.5625 7.3125 C15.2225 7.9725 15.8825 8.6325 16.5625 9.3125 C6.78155009 10.23749351 6.78155009 10.23749351 3.89453125 8.046875 C2.73665839 6.50304452 1.64763919 4.90829292 0.5625 3.3125 C-2.0889482 1.91430488 -2.0889482 1.91430488 -4.4375 1.3125 C-4.7675 1.9725 -5.0975 2.6325 -5.4375 3.3125 C-5.4375 2.3225 -5.4375 1.3325 -5.4375 0.3125 C-2.4375 -0.6875 -2.4375 -0.6875 0 0 Z " fill="#94AAB1" transform="translate(32.4375,12.6875)"/>
<path d="M0 0 C7.38461538 -0.36923077 7.38461538 -0.36923077 10.5 1.5 C10.995 1.995 11.49 2.49 12 3 C11.25 7.75 11.25 7.75 9 10 C9 10.99 9 11.98 9 13 C8.01 13.33 7.02 13.66 6 14 C6 12.68 6 11.36 6 10 C4.68 9.67 3.36 9.34 2 9 C4.31 8.34 6.62 7.68 9 7 C8.50243908 4.24358584 8.50243908 4.24358584 7 2 C4.67182036 1.63239269 2.3381615 1.29758419 0 1 C0 0.67 0 0.34 0 0 Z " fill="#40539B" transform="translate(23,25)"/>
<path d="M0 0 C3.3 0 6.6 0 10 0 C9.01 0.495 9.01 0.495 8 1 C8 2.32 8 3.64 8 5 C9.32 5.33 10.64 5.66 12 6 C10.20991533 6.22151549 8.41781838 6.42682213 6.625 6.625 C5.62726562 6.74101563 4.62953125 6.85703125 3.6015625 6.9765625 C2.74304688 6.98429687 1.88453125 6.99203125 1 7 C0.34 6.34 -0.32 5.68 -1 5 C1.31 5 3.62 5 6 5 C6 4.01 6 3.02 6 2 C4.02 2 2.04 2 0 2 C0 1.34 0 0.68 0 0 Z " fill="#126A11" transform="translate(21,41)"/>
<path d="M0 0 C0.33 0 0.66 0 1 0 C1 1.65 1 3.3 1 5 C3.31 5 5.62 5 8 5 C8 6.32 8 7.64 8 9 C4.7 9 1.4 9 -2 9 C-1.34 6.03 -0.68 3.06 0 0 Z " fill="#7FAF7A" transform="translate(4,18)"/>
<path d="M0 0 C2.3125 2.5625 2.3125 2.5625 4 5 C3.01 5.495 3.01 5.495 2 6 C0.37109375 5.2578125 0.37109375 5.2578125 -1.5625 4.125 C-5.9835768 1.77250042 -10.04549092 1.22937542 -15 1 C-15 0.67 -15 0.34 -15 0 C-3.51910828 -1.44904459 -3.51910828 -1.44904459 0 0 Z " fill="#E3EAE7" transform="translate(37,2)"/>
<path d="M0 0 C0.70125 0.309375 1.4025 0.61875 2.125 0.9375 C5.08936657 2.03302678 7.87698108 2.56422992 11 3 C11 3.99 11 4.98 11 6 C3.57142857 5 3.57142857 5 0 4 C0 2.68 0 1.36 0 0 Z " fill="#679568" transform="translate(16,40)"/>
<path d="M0 0 C5.75 -0.125 5.75 -0.125 8 1 C7.67 1.99 7.34 2.98 7 4 C4.36 4 1.72 4 -1 4 C-0.67 2.68 -0.34 1.36 0 0 Z " fill="#172C85" transform="translate(23,28)"/>
<path d="M0 0 C0.144375 0.639375 0.28875 1.27875 0.4375 1.9375 C0.81007181 3.97545146 0.81007181 3.97545146 2 5 C2.04092937 7.33297433 2.04241723 9.66705225 2 12 C1.60167969 11.51917969 1.20335937 11.03835937 0.79296875 10.54296875 C-1.43450247 8.62608175 -2.78834669 8.52258357 -5.6875 8.3125 C-6.89986328 8.21388672 -6.89986328 8.21388672 -8.13671875 8.11328125 C-8.75160156 8.07589844 -9.36648437 8.03851563 -10 8 C-10 7.67 -10 7.34 -10 7 C-7.03 7 -4.06 7 -1 7 C-1.020625 6.030625 -1.04125 5.06125 -1.0625 4.0625 C-1 1 -1 1 0 0 Z " fill="#364A9B" transform="translate(14,21)"/>
<path d="M0 0 C1.32 0.66 2.64 1.32 4 2 C2.72992786 2.9593419 1.45891081 3.91743294 0.1875 4.875 C-0.87404297 5.67550781 -0.87404297 5.67550781 -1.95703125 6.4921875 C-3.60456297 7.70814781 -5.29624211 8.86416141 -7 10 C-7 7 -7 7 -6 5 C-5.34 5 -4.68 5 -4 5 C-4 4.34 -4 3.68 -4 3 C-2.68 2.67 -1.36 2.34 0 2 C0 1.34 0 0.68 0 0 Z " fill="#E2E9E6" transform="translate(14,3)"/>
<path d="M0 0 C1.1446875 0.495 1.1446875 0.495 2.3125 1 C7.25174651 2.33945668 11.91463109 2.16287658 17 2 C17 2.66 17 3.32 17 4 C9.08 4.495 9.08 4.495 1 5 C1 4.34 1 3.68 1 3 C0.34 2.67 -0.32 2.34 -1 2 C-0.67 1.34 -0.34 0.68 0 0 Z " fill="#E5EAEA" transform="translate(15,46)"/>
<path d="M0 0 C0.99 0 1.98 0 3 0 C3.29344873 4.98862849 3.05887078 7.96229058 0 12 C-0.33 12 -0.66 12 -1 12 C-1.042721 10.33388095 -1.04063832 8.66617115 -1 7 C-0.67 6.67 -0.34 6.34 0 6 C0.04080783 4.00041636 0.04254356 1.99954746 0 0 Z " fill="#D8E0E6" transform="translate(49,21)"/>
<path d="M0 0 C0.66 0 1.32 0 2 0 C1.6875 1.875 1.6875 1.875 1 4 C-2 6 -2 6 -6 6 C-6 5.01 -6 4.02 -6 3 C-5.195625 2.690625 -4.39125 2.38125 -3.5625 2.0625 C-1.10919595 1.23664655 -1.10919595 1.23664655 0 0 Z " fill="#689669" transform="translate(35,39)"/>
<path d="M0 0 C3.3 0 6.6 0 10 0 C9.01 1.485 9.01 1.485 8 3 C4.375 3.1875 4.375 3.1875 1 3 C0.67 2.01 0.34 1.02 0 0 Z " fill="#7AAA77" transform="translate(40,26)"/>
<path d="M0 0 C0.91007812 0.00902344 1.82015625 0.01804687 2.7578125 0.02734375 C3.45648438 0.03894531 4.15515625 0.05054688 4.875 0.0625 C2.45369669 2.48380331 1.07388623 2.59090504 -2.25 3.1875 C-3.61511719 3.43886719 -3.61511719 3.43886719 -5.0078125 3.6953125 C-5.70648437 3.81648437 -6.40515625 3.93765625 -7.125 4.0625 C-7.125 3.0725 -7.125 2.0825 -7.125 1.0625 C-4.60024538 -0.19987731 -2.81299534 -0.03606404 0 0 Z " fill="#83A783" transform="translate(23.125,7.9375)"/>
<path d="M0 0 C2.5 1.625 2.5 1.625 5 4 C5.5 7.0625 5.5 7.0625 5 10 C3.5 11.875 3.5 11.875 2 13 C1.01 12.67 0.02 12.34 -1 12 C0.32 11.01 1.64 10.02 3 9 C2.64950425 5.75791433 2.43778819 4.38472296 -0.0625 2.1875 C-0.701875 1.795625 -1.34125 1.40375 -2 1 C-1.34 0.67 -0.68 0.34 0 0 Z " fill="#C1C8DD" transform="translate(31,23)"/>
<path d="M0 0 C1.25541557 3.76624671 0.37061958 5.37188934 -1 9 C-2.32 9 -3.64 9 -5 9 C-4.42906864 5.6885981 -3.45395174 4.24945577 -1 2 C-0.67 1.34 -0.34 0.68 0 0 Z " fill="#EEF2F1" transform="translate(51,28)"/>
<path d="M0 0 C0.66 0.33 1.32 0.66 2 1 C0.02 3.97 -1.96 6.94 -4 10 C-4.33 9.34 -4.66 8.68 -5 8 C-5.99 8 -6.98 8 -8 8 C-7.67 7.01 -7.34 6.02 -7 5 C-7 5.66 -7 6.32 -7 7 C-6.01 7 -5.02 7 -4 7 C-3.8453125 5.824375 -3.8453125 5.824375 -3.6875 4.625 C-3 2 -3 2 0 0 Z " fill="#357F31" transform="translate(16,13)"/>
<path d="M0 0 C3.2578125 -0.29296875 3.2578125 -0.29296875 7.125 -0.1875 C9.04699219 -0.14689453 9.04699219 -0.14689453 11.0078125 -0.10546875 C11.99523438 -0.07066406 12.98265625 -0.03585938 14 0 C14 0.33 14 0.66 14 1 C8.72 1.66 3.44 2.32 -2 3 C-1.34 2.01 -0.68 1.02 0 0 Z " fill="#096409" transform="translate(18,5)"/>
<path d="M0 0 C1.32933511 2.21555852 2.26926743 4.43945345 3.125 6.875 C1.4175002 5.59437515 -0.24873596 4.25732443 -1.875 2.875 C-1.875 2.215 -1.875 1.555 -1.875 0.875 C-4.515 0.875 -7.155 0.875 -9.875 0.875 C-9.875 0.545 -9.875 0.215 -9.875 -0.125 C-2.44222689 -1.46533613 -2.44222689 -1.46533613 0 0 Z " fill="#93B59B" transform="translate(14.875,31.125)"/>
<path d="M0 0 C-0.61875 0.2475 -1.2375 0.495 -1.875 0.75 C-4.35068687 2.20628639 -4.95125002 3.37812506 -6 6 C-5.34 6.33 -4.68 6.66 -4 7 C-5.32 6.67 -6.64 6.34 -8 6 C-8 4.68 -8 3.36 -8 2 C-4.77208445 -0.1519437 -3.71599191 -0.20086443 0 0 Z " fill="#A8B1D0" transform="translate(28,26)"/>
<path d="M0 0 C2.475 0.495 2.475 0.495 5 1 C5 1.66 5 2.32 5 3 C4.01 3 3.02 3 2 3 C2 4.32 2 5.64 2 7 C1.34 7 0.68 7 0 7 C0 4.69 0 2.38 0 0 Z " fill="#D4DAE8" transform="translate(29,17)"/>
<path d="M0 0 C0 0.66 0 1.32 0 2 C-0.928125 2.4125 -1.85625 2.825 -2.8125 3.25 C-5.88054681 4.93441786 -7.19040465 6.08454083 -9 9 C-8.70460812 5.45529741 -8.22373481 4.21784705 -5.625 1.6875 C-3 0 -3 0 0 0 Z " fill="#152684" transform="translate(24,14)"/>
<path d="M0 0 C-0.3125 1.9375 -0.3125 1.9375 -1 4 C-1.99 4.33 -2.98 4.66 -4 5 C-4 3.68 -4 2.36 -4 1 C-5.32 0.67 -6.64 0.34 -8 0 C-4.94736336 -0.98120464 -3.05263664 -0.98120464 0 0 Z " fill="#5261A4" transform="translate(33,34)"/>
<path d="M0 0 C0.99 0 1.98 0 3 0 C2.34 2.31 1.68 4.62 1 7 C0.01 7 -0.98 7 -2 7 C-2 5.68 -2 4.36 -2 3 C-1.34 3 -0.68 3 0 3 C0 2.01 0 1.02 0 0 Z " fill="#86A985" transform="translate(11,13)"/>
<path d="M0 0 C4.95 0.99 4.95 0.99 10 2 C9.34 2.66 8.68 3.32 8 4 C3.89730308 3.68440793 3.04095366 3.04095366 0 0 Z " fill="#277726" transform="translate(12,43)"/>
<path d="M0 0 C0.66 0.33 1.32 0.66 2 1 C0.02 3.31 -1.96 5.62 -4 8 C-4.99 7.67 -5.98 7.34 -7 7 C-6.21625 6.401875 -5.4325 5.80375 -4.625 5.1875 C-1.85425677 3.08914751 -1.85425677 3.08914751 0 0 Z " fill="#96B0A9" transform="translate(38,31)"/>
<path d="M0 0 C2.64 0 5.28 0 8 0 C8 0.66 8 1.32 8 2 C6.35 2 4.7 2 3 2 C2.67 2.66 2.34 3.32 2 4 C2 3.34 2 2.68 2 2 C1.34 2 0.68 2 0 2 C0 1.34 0 0.68 0 0 Z " fill="#0D670D" transform="translate(5,32)"/>
<path d="M0 0 C0.33 0.99 0.66 1.98 1 3 C1.66 3 2.32 3 3 3 C3.33 4.32 3.66 5.64 4 7 C2.68 7 1.36 7 0 7 C-0.38133299 5.0085944 -0.71325582 3.00720923 -1 1 C-0.67 0.67 -0.34 0.34 0 0 Z " fill="#E8EEE9" transform="translate(47,14)"/>
<path d="M0 0 C0.99 0.33 1.98 0.66 3 1 C2.625 3.4375 2.625 3.4375 2 6 C1.01 6.495 1.01 6.495 0 7 C-0.38133299 5.0085944 -0.71325582 3.00720923 -1 1 C-0.67 0.67 -0.34 0.34 0 0 Z " fill="#EFF3F2" transform="translate(4,11)"/>
</svg>
